<svg id="svg" version="1.1" xmlns="http://www.w3.org/2000/svg" xmlns:xlink="http://www.w3.org/1999/xlink" width="400" height="432" viewBox="0, 0, 400,432"><g id="svgg"><path id="path0" d="M399.751 4.400 C 399.751 6.930,399.816 7.965,399.896 6.700 C 399.975 5.435,399.975 3.365,399.896 2.100 C 399.816 0.835,399.751 1.870,399.751 4.400 M171.909 64.300 L 64.817 64.401 64.109 65.483 C 63.234 66.817,62.990 116.349,63.853 117.213 C 64.869 118.230,72.024 118.374,121.851 118.387 C 169.792 118.399,173.945 118.452,174.451 119.062 C 174.899 119.602,175.003 123.265,175.018 138.962 C 175.111 238.552,175.777 363.807,176.221 364.931 C 176.748 366.266,178.235 366.367,198.137 366.422 C 219.102 366.481,219.369 366.458,219.839 364.586 C 220.127 363.439,219.719 174.661,219.357 141.585 C 219.156 123.143,219.206 119.293,219.657 118.920 C 220.050 118.594,235.355 118.418,275.200 118.279 C 305.450 118.174,330.706 117.955,331.324 117.793 C 333.723 117.163,333.654 118.108,333.312 90.616 L 333.000 65.529 332.056 64.764 C 331.145 64.027,330.190 64.004,305.056 64.099 C 290.725 64.154,230.809 64.244,171.909 64.300 M65.680 135.177 C 64.027 135.591,64.005 135.614,63.575 137.468 C 63.171 139.208,63.140 353.903,63.542 360.281 C 63.700 362.778,64.002 364.563,64.320 364.881 C 64.848 365.408,104.245 365.914,106.252 365.419 C 107.733 365.054,107.759 364.317,107.982 317.400 L 108.200 271.400 135.507 271.546 C 155.880 271.654,163.104 271.571,163.955 271.219 L 165.095 270.746 165.378 264.273 C 165.905 252.187,164.962 137.867,164.325 136.666 C 163.395 134.913,163.803 134.927,114.200 134.886 C 88.240 134.864,66.406 134.995,65.680 135.177 M247.000 135.189 C 232.892 135.436,232.997 135.414,232.568 138.274 C 232.302 140.048,232.623 221.275,233.022 253.000 C 233.124 261.140,233.206 268.385,233.204 269.100 C 233.201 269.903,233.531 270.731,234.064 271.264 L 234.928 272.128 262.230 271.882 C 285.368 271.674,289.603 271.722,289.997 272.197 C 290.710 273.055,290.631 324.407,289.917 324.860 C 289.029 325.423,278.000 325.278,277.811 324.700 C 277.721 324.425,277.559 315.742,277.452 305.404 L 277.258 286.609 276.207 285.704 L 275.155 284.800 255.878 284.847 C 234.516 284.900,234.448 284.905,233.655 286.559 C 232.897 288.141,232.966 363.203,233.727 364.791 C 234.072 365.510,234.688 365.899,235.876 366.150 C 237.883 366.573,332.305 365.902,333.252 365.458 C 334.377 364.929,334.442 362.290,334.431 317.247 C 334.415 250.961,334.098 230.881,333.058 230.324 C 332.474 230.011,324.515 229.970,305.199 230.179 C 282.407 230.426,278.086 230.386,277.699 229.919 C 276.804 228.841,276.513 177.935,277.398 177.200 C 278.561 176.234,288.200 176.095,289.233 177.030 C 289.965 177.692,290.001 178.471,290.013 193.962 C 290.028 211.993,290.270 215.404,291.617 216.494 C 292.832 217.478,330.301 217.586,332.632 216.613 L 334.038 216.025 333.980 178.113 C 333.921 139.958,333.794 136.227,332.518 135.292 C 331.798 134.764,275.090 134.695,247.000 135.189 M120.000 176.800 C 121.109 177.909,121.273 228.269,120.171 229.371 C 119.350 230.193,109.150 230.305,108.484 229.500 C 107.819 228.695,107.340 177.396,107.991 176.611 C 108.853 175.572,118.931 175.731,120.000 176.800 M399.000 354.800 C 398.560 355.459,398.065 355.998,397.900 355.999 C 397.735 355.999,397.600 356.240,397.600 356.532 C 397.600 356.825,397.195 357.285,396.700 357.555 C 396.205 357.825,395.350 358.660,394.800 359.412 C 394.250 360.163,393.575 360.783,393.300 360.789 C 393.025 360.795,392.800 360.988,392.800 361.218 C 392.800 361.448,392.358 362.078,391.818 362.618 C 391.278 363.158,390.648 363.600,390.418 363.600 C 390.188 363.600,390.000 363.782,390.000 364.005 C 390.000 364.227,389.102 365.352,388.004 366.505 C 385.862 368.753,385.637 369.200,386.643 369.200 C 387.059 369.200,387.202 368.982,387.047 368.579 C 386.907 368.212,386.976 368.062,387.218 368.211 C 387.721 368.522,396.876 359.247,396.564 358.742 C 396.441 358.543,396.507 358.430,396.711 358.490 C 397.273 358.656,400.000 355.233,400.000 354.362 C 400.000 353.364,399.943 353.389,399.000 354.800 M385.200 369.500 C 385.199 370.011,383.332 372.000,382.853 372.000 C 382.604 372.000,382.400 372.204,382.400 372.453 C 382.400 372.702,382.076 373.197,381.679 373.553 C 381.283 373.909,380.428 374.908,379.779 375.774 C 379.131 376.640,377.983 377.949,377.229 378.683 C 376.178 379.707,375.968 380.128,376.329 380.489 C 376.690 380.850,376.800 380.817,376.800 380.348 C 376.800 380.011,377.250 379.494,377.800 379.200 C 378.350 378.906,378.800 378.549,378.800 378.408 C 378.800 378.267,380.060 376.849,381.600 375.256 C 383.140 373.663,384.400 372.202,384.400 372.009 C 384.400 371.816,384.865 371.292,385.434 370.845 C 386.002 370.398,386.351 369.845,386.210 369.616 C 385.914 369.137,385.200 369.055,385.200 369.500 M374.300 381.614 C 373.695 382.274,373.200 382.991,373.200 383.207 C 373.200 383.423,373.020 383.600,372.800 383.600 C 372.580 383.600,371.320 384.680,370.000 386.000 C 368.680 387.320,367.600 388.580,367.600 388.800 C 367.600 389.020,367.411 389.200,367.179 389.200 C 366.774 389.200,360.000 395.862,360.000 396.261 C 360.000 396.548,358.900 397.600,358.600 397.600 C 358.299 397.600,357.200 398.652,357.200 398.940 C 357.200 399.315,347.563 408.800,347.182 408.800 C 346.972 408.800,346.800 409.031,346.800 409.313 C 346.800 409.841,342.975 413.600,342.437 413.600 C 342.271 413.600,341.901 414.038,341.614 414.574 C 341.327 415.110,339.407 417.178,337.346 419.169 C 335.286 421.161,333.600 422.931,333.600 423.104 C 333.600 423.277,332.970 423.757,332.200 424.172 C 331.430 424.587,330.800 425.090,330.800 425.292 C 330.800 425.709,329.787 426.800,329.400 426.800 C 329.066 426.800,328.000 427.866,328.000 428.200 C 328.000 428.615,326.895 429.600,326.429 429.600 C 326.193 429.600,326.000 429.881,326.000 430.224 C 326.000 430.567,325.820 430.736,325.600 430.600 C 325.380 430.464,325.200 430.618,325.200 430.943 C 325.200 431.268,324.975 431.624,324.700 431.735 C 324.425 431.846,324.603 431.951,325.097 431.968 C 325.590 431.986,326.218 431.640,326.493 431.200 C 326.768 430.760,327.219 430.400,327.496 430.400 C 327.773 430.400,328.000 430.247,328.000 430.059 C 328.000 429.872,328.585 429.107,329.300 428.359 C 330.014 427.612,330.554 426.865,330.500 426.700 C 330.445 426.535,330.550 426.445,330.733 426.500 C 331.195 426.639,334.400 423.794,334.400 423.246 C 334.400 423.001,334.568 422.800,334.774 422.800 C 334.980 422.800,336.870 421.078,338.974 418.974 C 341.078 416.870,342.800 414.980,342.800 414.774 C 342.800 414.568,342.952 414.400,343.138 414.400 C 343.468 414.400,356.000 402.168,356.000 401.846 C 356.000 401.756,358.348 399.331,361.217 396.458 C 364.087 393.585,366.417 391.125,366.396 390.990 C 366.375 390.856,367.007 390.231,367.800 389.600 C 368.593 388.969,369.233 388.352,369.221 388.227 C 369.210 388.102,369.301 388.011,369.425 388.024 C 369.876 388.072,376.000 381.331,376.000 380.786 C 376.000 380.105,375.429 380.384,374.300 381.614 " stroke="none" fill="#fbfaf9" fill-rule="evenodd"></path><path id="path1" d="M0.000 216.000 L 0.000 432.000 161.967 432.000 C 324.724 432.000,325.200 431.997,325.200 430.934 C 325.200 430.614,325.380 430.464,325.600 430.600 C 325.820 430.736,326.000 430.567,326.000 430.224 C 326.000 429.881,326.193 429.600,326.429 429.600 C 326.895 429.600,328.000 428.615,328.000 428.200 C 328.000 427.866,329.066 426.800,329.400 426.800 C 329.787 426.800,330.800 425.709,330.800 425.292 C 330.800 425.090,331.430 424.587,332.200 424.172 C 332.970 423.757,333.600 423.277,333.600 423.104 C 333.600 422.931,335.286 421.161,337.346 419.169 C 339.407 417.178,341.327 415.110,341.614 414.574 C 341.901 414.038,342.271 413.600,342.437 413.600 C 342.975 413.600,346.800 409.841,346.800 409.313 C 346.800 409.031,346.972 408.800,347.182 408.800 C 347.563 408.800,357.200 399.315,357.200 398.940 C 357.200 398.652,358.299 397.600,358.600 397.600 C 358.900 397.600,360.000 396.548,360.000 396.261 C 360.000 395.862,366.774 389.200,367.179 389.200 C 367.411 389.200,367.600 389.020,367.600 388.800 C 367.600 388.580,368.680 387.320,370.000 386.000 C 371.320 384.680,372.580 383.600,372.800 383.600 C 373.020 383.600,373.200 383.418,373.200 383.196 C 373.200 382.438,375.542 380.317,376.040 380.625 C 376.356 380.820,376.419 380.755,376.224 380.439 C 376.042 380.144,376.449 379.443,377.262 378.651 C 377.998 377.935,379.131 376.640,379.779 375.774 C 380.428 374.908,381.283 373.909,381.679 373.553 C 382.076 373.197,382.400 372.702,382.400 372.453 C 382.400 372.204,382.604 372.000,382.853 372.000 C 383.354 372.000,385.199 370.001,385.200 369.457 C 385.200 369.269,385.448 369.209,385.750 369.326 C 386.091 369.456,386.281 369.282,386.250 368.868 C 386.223 368.501,386.438 368.249,386.730 368.310 C 387.021 368.370,387.166 368.269,387.052 368.084 C 386.938 367.899,387.554 366.995,388.422 366.073 C 389.290 365.152,390.000 364.219,390.000 363.999 C 390.000 363.780,390.188 363.600,390.418 363.600 C 390.648 363.600,391.278 363.158,391.818 362.618 C 392.358 362.078,392.800 361.448,392.800 361.218 C 392.800 360.988,393.025 360.795,393.300 360.789 C 393.575 360.783,394.250 360.163,394.800 359.412 C 395.350 358.660,396.205 357.825,396.700 357.555 C 397.195 357.285,397.600 356.825,397.600 356.532 C 397.600 356.240,397.735 355.999,397.900 355.997 C 398.065 355.996,398.605 355.400,399.100 354.673 L 400.000 353.350 400.000 183.339 C 400.000 89.833,399.882 10.329,399.737 6.664 L 399.474 0.000 199.737 0.000 L 0.000 0.000 0.000 216.000 M332.056 64.764 L 333.000 65.529 333.312 90.616 C 333.654 118.108,333.723 117.163,331.324 117.793 C 330.706 117.955,305.450 118.174,275.200 118.279 C 235.355 118.418,220.050 118.594,219.657 118.920 C 219.206 119.293,219.156 123.143,219.357 141.585 C 219.719 174.661,220.127 363.439,219.839 364.586 C 219.369 366.458,219.102 366.481,198.137 366.422 C 178.235 366.367,176.748 366.266,176.221 364.931 C 175.777 363.807,175.111 238.552,175.018 138.962 C 175.003 123.265,174.899 119.602,174.451 119.062 C 173.945 118.452,169.792 118.399,121.851 118.387 C 72.024 118.374,64.869 118.230,63.853 117.213 C 62.990 116.349,63.234 66.817,64.109 65.483 L 64.817 64.401 171.909 64.300 C 230.809 64.244,290.725 64.154,305.056 64.099 C 330.190 64.004,331.145 64.027,332.056 64.764 M162.668 135.429 C 163.365 135.706,164.111 136.263,164.325 136.666 C 164.962 137.867,165.905 252.187,165.378 264.273 L 165.095 270.746 163.955 271.219 C 163.104 271.571,155.880 271.654,135.507 271.546 L 108.200 271.400 107.982 317.400 C 107.759 364.317,107.733 365.054,106.252 365.419 C 104.245 365.914,64.848 365.408,64.320 364.881 C 64.002 364.563,63.700 362.778,63.542 360.281 C 63.140 353.903,63.171 139.208,63.575 137.468 C 64.005 135.614,64.027 135.591,65.680 135.177 C 67.988 134.599,161.189 134.842,162.668 135.429 M332.518 135.292 C 333.794 136.227,333.921 139.958,333.980 178.113 L 334.038 216.025 332.632 216.613 C 330.301 217.586,292.832 217.478,291.617 216.494 C 290.270 215.404,290.028 211.993,290.013 193.962 C 290.001 178.471,289.965 177.692,289.233 177.030 C 288.200 176.095,278.561 176.234,277.398 177.200 C 276.513 177.935,276.804 228.841,277.699 229.919 C 278.086 230.386,282.407 230.426,305.199 230.179 C 324.515 229.970,332.474 230.011,333.058 230.324 C 334.098 230.881,334.415 250.961,334.431 317.247 C 334.442 362.290,334.377 364.929,333.252 365.458 C 332.305 365.902,237.883 366.573,235.876 366.150 C 234.688 365.899,234.072 365.510,233.727 364.791 C 232.966 363.203,232.897 288.141,233.655 286.559 C 234.448 284.905,234.516 284.900,255.878 284.847 L 275.155 284.800 276.207 285.704 L 277.258 286.609 277.452 305.404 C 277.559 315.742,277.721 324.425,277.811 324.700 C 278.000 325.278,289.029 325.423,289.917 324.860 C 290.631 324.407,290.710 273.055,289.997 272.197 C 289.603 271.722,285.368 271.674,262.230 271.882 L 234.928 272.128 234.064 271.264 C 233.531 270.731,233.201 269.903,233.204 269.100 C 233.206 268.385,233.124 261.140,233.022 253.000 C 232.623 221.275,232.302 140.048,232.568 138.274 C 232.997 135.414,232.892 135.436,247.000 135.189 C 275.090 134.695,331.798 134.764,332.518 135.292 M107.991 176.611 C 107.340 177.396,107.819 228.695,108.484 229.500 C 109.150 230.305,119.350 230.193,120.171 229.371 C 121.273 228.269,121.109 177.909,120.000 176.800 C 118.931 175.731,108.853 175.572,107.991 176.611 " stroke="none" fill="#fb7107" fill-rule="evenodd"></path></g></svg>