<svg id="svg" version="1.1" xmlns="http://www.w3.org/2000/svg" xmlns:xlink="http://www.w3.org/1999/xlink" width="400" height="400" viewBox="0, 0, 400,400"><g id="svgg"><path id="path0" d="M307.800 12.801 C 304.559 13.207,230.592 13.627,175.000 13.556 C 150.140 13.524,125.300 13.535,119.800 13.579 C 114.300 13.624,108.990 13.637,108.000 13.608 C 93.707 13.195,31.837 13.212,30.088 13.630 C 24.970 14.851,25.383 7.509,25.446 96.200 C 25.471 131.840,25.497 170.540,25.503 182.200 C 25.509 193.860,25.562 205.470,25.622 208.000 C 25.682 210.530,25.697 213.230,25.656 214.000 C 25.404 218.742,25.238 252.930,25.171 314.000 L 25.094 383.850 26.047 385.309 C 27.441 387.442,27.846 387.545,36.600 387.994 C 43.598 388.353,154.019 388.608,159.873 388.279 C 161.014 388.215,161.874 388.280,161.785 388.425 C 161.696 388.569,162.698 388.702,164.011 388.721 C 165.457 388.741,166.400 388.586,166.400 388.328 C 166.400 388.037,166.559 388.031,166.900 388.308 C 167.217 388.566,171.424 388.685,178.400 388.634 C 184.450 388.589,191.920 388.681,195.000 388.838 C 199.950 389.091,221.261 389.332,282.089 389.820 C 292.873 389.907,299.667 389.815,299.812 389.580 C 299.941 389.371,300.387 389.200,300.801 389.200 C 301.604 389.200,310.673 380.186,310.500 379.561 C 310.445 379.362,310.573 379.245,310.783 379.300 C 311.311 379.438,337.430 353.432,341.440 348.776 C 341.903 348.239,343.163 346.980,344.240 345.977 C 346.457 343.914,355.341 334.521,357.066 332.416 C 357.690 331.654,360.270 328.896,362.800 326.286 C 365.330 323.676,367.558 321.258,367.752 320.913 C 367.946 320.567,368.699 319.707,369.426 319.001 C 372.704 315.818,372.400 322.325,372.400 255.330 C 372.400 222.635,372.223 191.096,372.007 185.242 C 371.791 179.389,371.511 152.730,371.385 126.000 C 370.902 23.523,370.628 14.093,368.100 12.900 C 366.907 12.337,312.230 12.248,307.800 12.801 M367.720 14.501 L 369.155 15.816 369.230 20.408 C 369.272 22.933,369.458 26.260,369.645 27.800 C 369.832 29.340,370.056 46.440,370.143 65.800 C 370.401 123.019,370.788 180.028,371.017 194.600 C 371.504 225.524,371.663 314.800,371.231 314.800 C 370.994 314.800,370.800 315.078,370.800 315.418 C 370.800 315.758,370.395 316.456,369.900 316.968 C 368.708 318.202,367.600 319.564,367.600 319.796 C 367.600 319.898,365.708 321.895,363.395 324.233 C 361.082 326.572,358.337 329.500,357.295 330.740 C 356.253 331.980,354.725 333.657,353.900 334.466 C 353.075 335.275,352.400 336.118,352.400 336.338 C 352.400 337.029,300.948 388.400,300.256 388.400 C 299.895 388.400,299.600 388.566,299.600 388.768 C 299.600 389.274,266.609 389.275,264.800 388.769 C 263.961 388.534,249.696 388.303,229.200 388.193 C 210.390 388.092,189.901 387.911,183.669 387.792 C 175.150 387.629,172.409 387.690,172.623 388.038 C 172.831 388.373,172.483 388.427,171.355 388.234 C 168.118 387.679,163.838 387.640,103.100 387.610 C 62.888 387.591,40.800 387.442,40.800 387.190 C 40.800 386.954,38.468 386.800,34.900 386.800 C 29.347 386.799,28.941 386.746,27.997 385.900 C 25.746 383.879,25.854 387.262,26.210 330.116 C 26.474 287.679,26.554 163.255,26.375 72.600 C 26.358 64.240,26.472 48.491,26.628 37.601 C 26.931 16.425,26.906 16.660,28.957 15.484 C 29.608 15.110,57.587 14.936,152.000 14.721 C 274.684 14.440,309.074 14.224,322.800 13.647 C 326.870 13.476,338.319 13.302,348.243 13.261 L 366.285 13.187 367.720 14.501 M173.314 71.500 L 84.427 71.602 83.914 72.501 C 83.263 73.640,82.917 114.002,83.543 115.651 C 84.159 117.271,83.842 117.259,131.986 117.407 C 172.847 117.533,177.418 117.610,177.835 118.181 C 178.182 118.655,178.375 144.036,178.598 218.781 C 178.955 338.052,178.837 326.608,179.723 327.495 C 180.466 328.238,215.101 328.631,215.829 327.904 C 216.945 326.790,217.035 303.813,216.360 192.264 C 216.073 144.880,216.051 118.189,216.298 117.942 C 216.538 117.702,233.821 117.492,262.242 117.384 C 311.389 117.197,311.683 117.188,312.591 115.891 C 313.160 115.079,313.144 76.168,312.574 73.328 C 312.127 71.104,313.239 71.192,286.671 71.299 C 273.212 71.354,222.201 71.444,173.314 71.500 M261.000 131.612 C 243.180 131.744,228.568 131.886,228.529 131.926 C 228.489 131.967,228.174 132.283,227.829 132.629 C 226.545 133.913,227.301 246.483,228.600 247.478 C 229.305 248.018,232.156 248.064,252.688 247.864 C 266.811 247.727,276.066 247.783,276.205 248.008 C 276.582 248.618,276.465 292.495,276.085 292.875 C 275.892 293.068,273.499 293.175,270.767 293.113 L 265.800 293.000 265.400 276.519 C 265.095 263.955,264.876 259.914,264.480 259.519 C 263.552 258.594,229.449 258.779,228.514 259.714 C 227.756 260.473,227.364 323.844,228.101 326.473 C 228.587 328.207,228.525 328.205,269.000 328.086 C 309.769 327.967,312.458 327.894,313.289 326.892 C 314.083 325.932,313.791 213.643,312.992 212.830 C 312.406 212.234,291.557 212.129,274.000 212.634 C 268.254 212.799,266.447 212.730,265.918 212.323 C 265.036 211.647,264.310 169.264,265.153 167.687 C 265.719 166.629,274.686 166.294,275.513 167.300 C 275.773 167.616,275.977 173.466,276.069 183.200 C 276.234 200.725,276.243 200.781,279.002 201.271 C 281.622 201.735,308.924 201.651,311.160 201.171 C 313.148 200.745,313.161 200.731,313.437 198.892 C 313.816 196.364,313.208 133.674,312.794 132.584 C 312.321 131.339,311.025 131.188,301.650 131.286 C 297.113 131.333,278.820 131.480,261.000 131.612 M84.269 132.188 C 83.269 133.188,83.248 135.073,83.229 224.600 C 83.210 320.072,83.277 325.677,84.452 326.852 C 85.174 327.574,86.003 327.604,102.692 327.504 L 120.177 327.400 120.682 326.400 C 121.080 325.615,121.189 317.104,121.194 286.749 C 121.199 253.353,121.279 248.032,121.784 247.613 C 122.236 247.238,127.569 247.195,145.304 247.421 C 162.620 247.642,168.455 247.599,169.120 247.243 L 170.000 246.772 170.000 203.251 C 170.000 147.425,169.749 133.349,168.734 132.334 C 167.716 131.316,85.284 131.173,84.269 132.188 M131.326 166.900 C 132.444 167.724,132.480 211.052,131.363 211.895 C 130.548 212.510,122.328 212.461,121.704 211.837 C 121.111 211.245,120.940 167.516,121.529 166.928 C 122.245 166.213,130.361 166.189,131.326 166.900 " stroke="none" fill="#fbfaf9" fill-rule="evenodd"></path><path id="path1" d="M333.521 14.991 C 333.454 15.047,326.574 15.214,318.232 15.364 C 309.890 15.514,302.927 15.721,302.760 15.825 C 302.592 15.929,283.318 16.189,259.927 16.403 C 222.921 16.743,181.980 16.790,59.800 16.635 C 27.426 16.594,28.973 16.407,28.243 20.455 C 27.954 22.057,27.367 69.941,27.522 79.200 C 27.829 97.465,27.910 305.642,27.613 311.000 C 26.774 326.104,26.924 382.470,27.807 383.973 C 29.204 386.352,33.260 386.545,89.800 386.924 C 115.564 387.096,117.249 387.074,102.800 386.754 C 93.670 386.552,83.590 386.320,80.400 386.238 C 77.210 386.156,72.455 386.069,69.833 386.044 C 67.212 386.020,65.195 385.872,65.351 385.716 C 65.736 385.331,140.150 385.212,143.746 385.591 C 147.234 385.958,146.097 386.061,137.000 386.203 C 111.634 386.597,123.476 387.023,166.600 387.267 C 192.560 387.414,232.979 387.658,256.421 387.809 C 297.502 388.074,299.085 388.058,300.236 387.342 C 301.801 386.369,310.526 377.329,310.116 377.104 C 309.942 377.009,310.017 376.983,310.283 377.046 C 310.548 377.110,316.218 371.635,322.883 364.881 C 329.547 358.126,337.520 350.072,340.600 346.982 C 346.651 340.912,348.963 338.461,353.602 333.200 C 355.251 331.330,358.238 328.090,360.241 326.000 C 366.828 319.125,367.271 318.622,368.864 316.205 L 370.443 313.809 370.330 264.405 C 370.267 237.232,370.097 205.280,369.952 193.400 C 369.568 162.028,369.228 121.087,368.996 78.200 C 368.768 36.003,368.263 17.405,367.317 16.328 C 366.553 15.459,334.488 14.191,333.521 14.991 M357.831 23.250 C 358.090 23.669,358.178 28.243,358.388 52.200 C 358.432 57.260,358.624 66.170,358.814 72.000 C 359.004 77.830,359.259 106.810,359.380 136.400 C 359.500 165.990,359.690 196.950,359.801 205.200 C 360.267 239.726,360.183 306.966,359.673 308.200 C 359.401 308.860,358.043 310.480,356.655 311.800 C 355.268 313.120,353.656 314.843,353.073 315.629 C 352.491 316.415,351.574 317.293,351.037 317.580 C 350.500 317.867,349.949 318.548,349.812 319.093 C 349.619 319.863,349.375 320.034,348.717 319.862 C 347.279 319.486,346.389 320.243,346.662 321.608 C 346.942 323.010,346.583 323.111,345.369 321.971 L 344.486 321.141 343.710 321.974 C 342.923 322.819,342.790 323.812,343.343 324.707 C 343.682 325.256,343.356 326.000,342.776 326.000 C 342.569 326.000,342.400 325.651,342.400 325.224 C 342.400 324.797,342.217 324.334,341.993 324.196 C 341.529 323.909,339.200 325.960,339.200 326.656 C 339.200 326.908,338.922 327.221,338.583 327.351 C 338.130 327.525,338.066 327.776,338.344 328.295 C 338.848 329.236,337.245 331.319,336.162 331.131 C 335.633 331.040,335.199 331.407,334.731 332.343 C 334.362 333.081,333.710 334.010,333.284 334.408 C 332.857 334.805,332.109 335.776,331.622 336.565 C 331.014 337.549,330.441 338.000,329.801 338.000 C 329.173 338.000,328.440 338.558,327.564 339.700 C 326.848 340.635,326.045 341.583,325.781 341.807 C 325.517 342.031,324.944 342.880,324.508 343.693 C 324.072 344.507,322.790 346.023,321.658 347.062 C 320.526 348.101,319.600 349.192,319.600 349.486 C 319.600 349.779,319.146 350.193,318.590 350.404 C 317.520 350.811,314.823 353.383,313.750 355.020 C 313.397 355.559,312.871 356.000,312.581 356.000 C 312.292 356.000,311.648 356.585,311.152 357.300 C 310.656 358.015,309.608 359.267,308.825 360.081 C 308.041 360.896,307.011 361.976,306.535 362.481 C 306.059 362.987,304.866 364.120,303.883 365.000 C 302.900 365.880,301.365 367.275,300.471 368.100 C 299.578 368.925,298.665 369.600,298.443 369.600 C 298.222 369.600,296.996 370.230,295.720 370.999 C 294.409 371.790,292.865 372.398,292.170 372.399 C 291.376 372.400,290.606 372.754,290.000 373.400 C 289.078 374.381,287.840 374.712,287.450 374.081 C 287.190 373.660,287.651 372.980,288.400 372.678 C 288.847 372.497,261.651 372.598,258.000 372.791 C 255.825 372.906,247.935 372.960,242.000 372.900 C 233.662 372.817,191.920 372.845,188.862 372.936 C 187.686 372.971,186.633 372.853,186.522 372.673 C 186.303 372.320,136.484 372.327,131.693 372.680 C 129.299 372.857,128.806 373.010,128.893 373.548 C 129.020 374.324,127.334 374.694,126.674 374.034 C 126.362 373.722,126.375 373.600,126.720 373.600 C 126.984 373.600,127.200 373.407,127.200 373.171 C 127.200 372.935,126.885 372.802,126.500 372.876 C 126.115 372.950,125.800 373.278,125.800 373.605 C 125.800 374.490,120.389 374.653,118.716 373.818 C 117.298 373.111,115.333 373.001,115.128 373.617 C 115.012 373.963,108.663 374.152,100.200 374.062 C 99.760 374.057,89.282 374.088,76.916 374.130 C 49.187 374.225,47.889 374.181,48.214 373.157 C 48.426 372.488,48.237 372.400,46.585 372.400 C 45.093 372.400,44.564 372.208,43.967 371.449 C 42.379 369.431,40.800 370.059,40.800 372.709 C 40.800 374.166,39.241 375.064,37.930 374.363 L 37.106 373.921 37.241 250.461 C 37.315 182.557,37.331 103.884,37.276 75.631 C 37.196 34.279,37.277 24.193,37.688 23.911 C 37.970 23.718,40.180 23.683,42.600 23.833 C 56.698 24.706,324.529 23.868,325.567 22.948 C 326.031 22.536,357.573 22.832,357.831 23.250 M342.302 30.231 C 342.202 30.332,328.637 30.496,312.160 30.596 C 295.682 30.695,268.700 30.891,252.200 31.030 C 196.495 31.499,53.403 31.172,46.503 30.559 L 44.005 30.337 44.232 128.068 C 44.357 181.821,44.484 234.350,44.515 244.800 C 44.545 255.250,44.435 286.775,44.270 314.856 C 44.009 359.177,44.046 365.989,44.549 366.492 C 45.303 367.246,57.096 367.527,99.400 367.799 C 116.780 367.911,138.920 368.097,148.600 368.212 C 180.284 368.588,289.295 368.421,290.839 367.994 C 291.863 367.711,293.361 366.484,296.039 363.733 C 298.107 361.608,304.210 355.430,309.600 350.002 C 314.990 344.575,324.638 334.839,331.039 328.367 C 337.441 321.895,345.153 314.223,348.178 311.318 L 353.677 306.037 353.442 298.318 C 353.313 294.073,353.115 269.450,353.003 243.600 C 352.539 137.064,352.361 108.462,351.996 81.800 C 351.479 44.013,351.193 31.054,350.868 30.718 C 350.561 30.400,342.587 29.947,342.302 30.231 M311.493 70.592 C 313.439 71.070,313.486 71.551,313.799 94.284 L 314.093 115.569 312.877 116.784 L 311.662 118.000 305.731 118.057 C 302.469 118.089,281.170 118.224,258.400 118.357 L 217.000 118.600 217.099 157.600 C 217.154 179.050,217.308 224.862,217.441 259.405 C 217.575 293.948,217.552 323.446,217.390 324.957 C 216.899 329.537,218.440 329.200,198.022 329.200 L 180.445 329.200 179.322 328.235 L 178.200 327.270 177.935 286.535 C 177.790 264.131,177.564 217.278,177.433 182.417 C 177.301 147.557,177.061 118.906,176.897 118.749 C 176.734 118.592,155.990 118.402,130.800 118.328 C 81.229 118.181,83.662 118.301,82.842 115.949 C 81.658 112.552,82.405 72.623,83.677 71.352 C 84.166 70.863,96.427 70.777,170.423 70.744 C 217.820 70.723,262.360 70.592,269.400 70.453 C 283.767 70.169,310.127 70.256,311.493 70.592 M167.903 131.028 C 170.195 131.397,170.295 131.883,170.560 144.000 C 170.935 161.150,171.027 246.095,170.672 247.088 C 170.150 248.546,168.775 248.620,146.200 248.406 C 134.320 248.292,124.015 248.265,123.300 248.344 L 122.000 248.488 122.000 286.984 C 122.000 328.017,122.012 327.754,120.060 328.302 C 118.416 328.764,85.291 328.477,84.387 327.993 C 82.522 326.995,82.607 331.325,82.476 231.200 C 82.351 136.408,82.381 133.126,83.391 131.745 C 84.140 130.718,161.883 130.059,167.903 131.028 M313.086 131.314 C 314.164 132.392,314.894 198.619,313.852 200.859 C 313.684 201.222,312.758 201.717,311.796 201.959 C 309.462 202.547,279.394 202.565,277.715 201.980 C 275.513 201.212,275.453 200.782,275.217 183.932 C 275.098 175.425,274.910 168.376,274.800 168.267 C 274.436 167.907,266.611 167.817,266.050 168.166 C 265.314 168.625,265.790 211.202,266.537 211.719 C 266.792 211.894,268.530 211.943,270.400 211.826 C 277.961 211.354,312.180 211.429,313.073 211.920 C 314.408 212.653,314.353 210.403,314.480 270.000 C 314.608 330.169,314.691 327.770,312.477 328.387 C 310.290 328.996,230.560 329.439,229.081 328.851 C 226.726 327.913,226.776 328.739,226.893 292.807 L 227.000 260.022 227.911 259.111 L 228.821 258.200 245.111 258.072 C 263.223 257.930,264.529 258.014,265.423 259.379 C 266.052 260.340,266.245 265.581,266.356 284.700 L 266.400 292.400 271.000 292.400 L 275.600 292.400 275.600 270.600 C 275.600 253.449,275.493 248.791,275.100 248.759 C 274.825 248.736,264.303 248.753,251.719 248.796 L 228.837 248.874 227.867 247.904 L 226.898 246.934 226.654 218.967 C 226.520 203.585,226.329 182.990,226.231 173.200 C 225.950 145.264,226.297 133.365,227.430 132.047 L 228.330 131.000 259.265 130.780 C 308.618 130.430,312.239 130.466,313.086 131.314 M122.000 189.176 C 122.000 204.003,122.133 210.835,122.426 211.016 C 123.226 211.510,128.985 211.686,130.100 211.250 L 131.200 210.820 131.200 189.453 C 131.200 170.338,131.133 168.060,130.567 167.843 C 130.219 167.709,128.149 167.600,125.967 167.600 L 122.000 167.600 122.000 189.176 M60.750 385.661 C 62.376 385.715,62.285 385.752,60.000 385.973 C 58.570 386.112,55.780 386.129,53.800 386.012 L 50.200 385.800 53.400 385.560 C 55.160 385.428,57.117 385.383,57.750 385.460 C 58.383 385.537,59.733 385.627,60.750 385.661 M190.200 385.632 C 191.377 385.691,191.373 385.697,190.000 385.946 C 188.187 386.275,176.113 386.025,176.686 385.670 C 177.049 385.445,185.967 385.420,190.200 385.632 M278.942 385.764 C 283.242 386.059,284.524 386.573,282.188 387.065 C 280.237 387.477,270.407 387.500,263.400 387.111 C 260.540 386.952,257.660 386.812,257.000 386.799 C 255.948 386.779,255.891 386.723,256.540 386.346 C 258.046 385.470,270.101 385.157,278.942 385.764 M292.856 386.400 C 293.522 386.400,293.942 386.571,293.808 386.787 C 293.676 387.000,292.631 387.112,291.484 387.035 C 290.338 386.957,288.500 386.842,287.400 386.778 L 285.400 386.662 288.000 386.403 C 289.430 386.260,290.840 386.201,291.133 386.272 C 291.426 386.342,292.201 386.400,292.856 386.400 M241.705 386.682 C 241.214 386.777,240.314 386.779,239.705 386.687 C 239.097 386.595,239.500 386.517,240.600 386.514 C 241.700 386.511,242.197 386.587,241.705 386.682 " stroke="none" fill="#fb7007" fill-rule="evenodd"></path><path id="path2" d="M324.800 23.660 C 315.450 23.845,299.250 24.155,288.800 24.350 C 272.533 24.654,44.608 24.616,39.639 24.309 L 37.878 24.200 37.968 48.280 C 38.018 61.524,38.194 72.864,38.360 73.480 C 38.814 75.162,39.174 62.507,39.197 44.104 C 39.208 34.907,39.380 27.578,39.598 27.005 L 39.980 26.000 148.090 26.201 C 207.960 26.313,266.641 26.236,279.600 26.029 C 292.470 25.824,309.390 25.547,317.200 25.415 C 329.075 25.213,345.695 25.189,355.200 25.360 C 357.291 25.398,357.400 25.350,357.400 24.400 L 357.400 23.400 349.600 23.363 C 345.310 23.342,334.150 23.476,324.800 23.660 M352.211 31.983 C 351.942 32.417,352.281 61.651,352.611 66.600 C 352.700 67.920,352.803 78.180,352.842 89.400 C 352.880 100.620,353.050 119.678,353.218 131.751 C 353.387 143.824,353.643 180.994,353.788 214.351 C 353.933 247.708,354.119 282.020,354.201 290.600 L 354.352 306.200 337.861 322.600 C 328.792 331.620,314.953 345.540,307.108 353.532 C 294.486 366.392,292.637 368.127,291.036 368.609 C 289.239 369.150,126.670 369.172,103.000 368.634 C 83.344 368.188,44.000 367.936,44.006 368.257 C 44.037 369.972,46.940 370.096,92.800 370.336 C 103.910 370.395,114.080 370.514,115.400 370.602 C 119.790 370.893,254.297 371.403,273.058 371.200 L 291.516 371.000 294.298 369.098 C 295.829 368.052,297.825 366.332,298.735 365.275 C 299.645 364.219,312.631 351.093,327.594 336.106 C 342.556 321.120,354.994 308.350,355.233 307.729 C 355.858 306.107,355.654 207.326,354.998 193.800 C 354.901 191.820,354.718 165.360,354.589 135.000 C 354.186 39.784,354.080 33.119,352.945 31.985 C 352.607 31.647,352.419 31.646,352.211 31.983 M38.553 113.600 L 38.573 127.000 38.787 116.800 C 38.904 111.190,38.895 105.160,38.766 103.400 C 38.638 101.640,38.542 106.230,38.553 113.600 M38.501 131.800 C 38.505 132.680,38.587 132.993,38.683 132.495 C 38.779 131.998,38.775 131.278,38.675 130.895 C 38.575 130.513,38.496 130.920,38.501 131.800 M38.499 289.000 C 38.482 291.200,38.596 292.550,38.751 292.000 C 38.906 291.450,38.919 289.650,38.781 288.000 L 38.529 285.000 38.499 289.000 M38.509 294.800 C 38.509 295.790,38.587 296.195,38.682 295.700 C 38.778 295.205,38.778 294.395,38.682 293.900 C 38.587 293.405,38.509 293.810,38.509 294.800 M38.493 305.200 C 38.493 305.970,38.575 306.285,38.676 305.900 C 38.776 305.515,38.776 304.885,38.676 304.500 C 38.575 304.115,38.493 304.430,38.493 305.200 M38.267 346.800 C 37.540 353.793,37.828 373.600,38.657 373.600 C 39.275 373.600,39.371 355.947,38.801 347.200 L 38.579 343.800 38.267 346.800 " stroke="none" fill="#e92005" fill-rule="evenodd"></path><path id="path3" d="M325.567 22.948 C 324.529 23.868,56.698 24.706,42.600 23.833 C 40.180 23.683,37.970 23.718,37.688 23.911 C 37.277 24.193,37.196 34.279,37.276 75.631 C 37.331 103.884,37.315 182.557,37.241 250.461 L 37.106 373.921 37.930 374.363 C 39.241 375.064,40.800 374.166,40.800 372.709 C 40.800 370.059,42.379 369.431,43.967 371.449 C 44.564 372.208,45.093 372.400,46.585 372.400 C 48.237 372.400,48.426 372.488,48.214 373.157 C 47.889 374.181,49.187 374.225,76.916 374.130 C 89.282 374.088,99.760 374.057,100.200 374.062 C 108.663 374.152,115.012 373.963,115.128 373.617 C 115.333 373.001,117.298 373.111,118.716 373.818 C 120.389 374.653,125.800 374.490,125.800 373.605 C 125.800 373.278,126.115 372.950,126.500 372.876 C 126.885 372.802,127.200 372.935,127.200 373.171 C 127.200 373.407,126.984 373.600,126.720 373.600 C 126.375 373.600,126.362 373.722,126.674 374.034 C 127.334 374.694,129.020 374.324,128.893 373.548 C 128.806 373.010,129.299 372.857,131.693 372.680 C 136.484 372.327,186.303 372.320,186.522 372.673 C 186.633 372.853,187.686 372.971,188.862 372.936 C 191.920 372.845,233.662 372.817,242.000 372.900 C 247.935 372.960,255.825 372.906,258.000 372.791 C 261.651 372.598,288.847 372.497,288.400 372.678 C 287.651 372.980,287.190 373.660,287.450 374.081 C 287.840 374.712,289.078 374.381,290.000 373.400 C 290.606 372.754,291.376 372.400,292.170 372.399 C 292.865 372.398,294.409 371.790,295.720 370.999 C 296.996 370.230,298.222 369.600,298.443 369.600 C 298.665 369.600,299.578 368.925,300.471 368.100 C 301.365 367.275,302.900 365.880,303.883 365.000 C 304.866 364.120,306.059 362.987,306.535 362.481 C 307.011 361.976,308.041 360.896,308.825 360.081 C 309.608 359.267,310.656 358.015,311.152 357.300 C 311.648 356.585,312.292 356.000,312.581 356.000 C 312.871 356.000,313.397 355.559,313.750 355.020 C 314.823 353.383,317.520 350.811,318.590 350.404 C 319.146 350.193,319.600 349.779,319.600 349.486 C 319.600 349.192,320.526 348.101,321.658 347.062 C 322.790 346.023,324.072 344.507,324.508 343.693 C 324.944 342.880,325.517 342.031,325.781 341.807 C 326.045 341.583,326.848 340.635,327.564 339.700 C 328.440 338.558,329.173 338.000,329.801 338.000 C 330.441 338.000,331.014 337.549,331.622 336.565 C 332.109 335.776,332.857 334.805,333.284 334.408 C 333.710 334.010,334.362 333.081,334.731 332.343 C 335.199 331.407,335.633 331.040,336.162 331.131 C 337.245 331.319,338.848 329.236,338.344 328.295 C 338.066 327.776,338.130 327.525,338.583 327.351 C 338.922 327.221,339.200 326.908,339.200 326.656 C 339.200 325.960,341.529 323.909,341.993 324.196 C 342.217 324.334,342.400 324.797,342.400 325.224 C 342.400 325.651,342.569 326.000,342.776 326.000 C 343.356 326.000,343.682 325.256,343.343 324.707 C 342.790 323.812,342.923 322.819,343.710 321.974 L 344.486 321.141 345.369 321.971 C 346.583 323.111,346.942 323.010,346.662 321.608 C 346.389 320.243,347.279 319.486,348.717 319.862 C 349.375 320.034,349.619 319.863,349.812 319.093 C 349.949 318.548,350.500 317.867,351.037 317.580 C 351.574 317.293,352.491 316.415,353.073 315.629 C 353.656 314.843,355.268 313.120,356.655 311.800 C 358.043 310.480,359.401 308.860,359.673 308.200 C 360.183 306.966,360.267 239.726,359.801 205.200 C 359.690 196.950,359.500 165.990,359.380 136.400 C 359.259 106.810,359.004 77.830,358.814 72.000 C 358.624 66.170,358.432 57.260,358.388 52.200 C 358.178 28.243,358.090 23.669,357.831 23.250 C 357.573 22.832,326.031 22.536,325.567 22.948 M357.400 24.400 C 357.400 25.350,357.291 25.398,355.200 25.360 C 345.695 25.189,329.075 25.213,317.200 25.415 C 309.390 25.547,292.470 25.824,279.600 26.029 C 266.641 26.236,207.960 26.313,148.090 26.201 L 39.980 26.000 39.598 27.005 C 39.380 27.578,39.208 34.907,39.197 44.104 C 39.174 62.507,38.814 75.162,38.360 73.480 C 38.194 72.864,38.018 61.524,37.968 48.280 L 37.878 24.200 39.639 24.309 C 44.608 24.616,272.533 24.654,288.800 24.350 C 299.250 24.155,315.450 23.845,324.800 23.660 C 334.150 23.476,345.310 23.342,349.600 23.363 L 357.400 23.400 357.400 24.400 M350.868 30.718 C 351.193 31.054,351.479 44.013,351.996 81.800 C 352.361 108.462,352.539 137.064,353.003 243.600 C 353.115 269.450,353.313 294.073,353.442 298.318 L 353.677 306.037 348.178 311.318 C 345.153 314.223,337.441 321.895,331.039 328.367 C 324.638 334.839,314.990 344.575,309.600 350.002 C 304.210 355.430,298.107 361.608,296.039 363.733 C 293.361 366.484,291.863 367.711,290.839 367.994 C 289.295 368.421,180.284 368.588,148.600 368.212 C 138.920 368.097,116.780 367.911,99.400 367.799 C 57.096 367.527,45.303 367.246,44.549 366.492 C 44.046 365.989,44.009 359.177,44.270 314.856 C 44.435 286.775,44.545 255.250,44.515 244.800 C 44.484 234.350,44.357 181.821,44.232 128.068 L 44.005 30.337 46.503 30.559 C 53.403 31.172,196.495 31.499,252.200 31.030 C 268.700 30.891,295.682 30.695,312.160 30.596 C 328.637 30.496,342.202 30.332,342.302 30.231 C 342.587 29.947,350.561 30.400,350.868 30.718 M353.716 36.120 C 354.094 40.512,354.277 61.323,354.589 135.000 C 354.718 165.360,354.901 191.820,354.998 193.800 C 355.654 207.326,355.858 306.107,355.233 307.729 C 354.994 308.350,342.556 321.120,327.594 336.106 C 312.631 351.093,299.645 364.219,298.735 365.275 C 297.825 366.332,295.829 368.052,294.298 369.098 L 291.516 371.000 273.058 371.200 C 254.297 371.403,119.790 370.893,115.400 370.602 C 114.080 370.514,103.910 370.395,92.800 370.336 C 46.940 370.096,44.037 369.972,44.006 368.257 C 44.000 367.936,83.344 368.188,103.000 368.634 C 126.670 369.172,289.239 369.150,291.036 368.609 C 292.637 368.127,294.486 366.392,307.108 353.532 C 314.953 345.540,328.792 331.620,337.861 322.600 L 354.352 306.200 354.201 290.600 C 354.119 282.020,353.933 247.708,353.788 214.351 C 353.643 180.994,353.387 143.824,353.218 131.751 C 353.050 119.678,352.880 100.620,352.842 89.400 C 352.803 78.180,352.700 67.920,352.611 66.600 C 352.281 61.651,351.942 32.417,352.211 31.983 C 352.832 30.977,353.411 32.567,353.716 36.120 M38.787 116.800 L 38.573 127.000 38.553 113.600 C 38.542 106.230,38.638 101.640,38.766 103.400 C 38.895 105.160,38.904 111.190,38.787 116.800 M38.683 132.495 C 38.587 132.993,38.505 132.680,38.501 131.800 C 38.496 130.920,38.575 130.513,38.675 130.895 C 38.775 131.278,38.779 131.998,38.683 132.495 M38.751 292.000 C 38.596 292.550,38.482 291.200,38.499 289.000 L 38.529 285.000 38.781 288.000 C 38.919 289.650,38.906 291.450,38.751 292.000 M38.682 295.700 C 38.587 296.195,38.509 295.790,38.509 294.800 C 38.509 293.810,38.587 293.405,38.682 293.900 C 38.778 294.395,38.778 295.205,38.682 295.700 M38.676 305.900 C 38.575 306.285,38.493 305.970,38.493 305.200 C 38.493 304.430,38.575 304.115,38.676 304.500 C 38.776 304.885,38.776 305.515,38.676 305.900 M39.140 362.100 C 39.242 372.105,39.179 373.600,38.657 373.600 C 37.828 373.600,37.540 353.793,38.267 346.800 L 38.579 343.800 38.801 347.200 C 38.923 349.070,39.075 355.775,39.140 362.100 M53.400 385.560 L 50.200 385.800 53.800 386.012 C 55.780 386.129,58.570 386.112,60.000 385.973 C 62.285 385.752,62.376 385.715,60.750 385.661 C 59.733 385.627,58.383 385.537,57.750 385.460 C 57.117 385.383,55.160 385.428,53.400 385.560 M69.400 385.621 L 65.000 385.842 70.000 385.968 C 72.750 386.038,77.430 386.156,80.400 386.230 C 101.053 386.748,120.097 386.955,124.000 386.703 C 126.530 386.540,131.930 386.335,136.000 386.248 C 146.710 386.019,146.561 386.027,146.233 385.700 C 145.890 385.357,76.087 385.285,69.400 385.621 M176.686 385.670 C 176.113 386.025,188.187 386.275,190.000 385.946 C 191.373 385.697,191.377 385.691,190.200 385.632 C 185.967 385.420,177.049 385.445,176.686 385.670 M260.940 385.652 C 257.275 385.916,254.413 386.749,257.000 386.799 C 257.660 386.812,260.540 386.952,263.400 387.111 C 274.575 387.732,284.874 387.345,283.130 386.369 C 281.782 385.615,267.759 385.162,260.940 385.652 M288.000 386.403 L 285.400 386.662 287.400 386.778 C 288.500 386.842,290.338 386.957,291.484 387.035 C 292.631 387.112,293.676 387.000,293.808 386.787 C 293.942 386.571,293.522 386.400,292.856 386.400 C 292.201 386.400,291.426 386.342,291.133 386.272 C 290.840 386.201,289.430 386.260,288.000 386.403 M239.705 386.687 C 240.314 386.779,241.214 386.777,241.705 386.682 C 242.197 386.587,241.700 386.511,240.600 386.514 C 239.500 386.517,239.097 386.595,239.705 386.687 " stroke="none" fill="#fa4a09" fill-rule="evenodd"></path><path id="path4" d="M322.800 13.647 C 309.074 14.224,274.684 14.440,152.000 14.721 C 57.587 14.936,29.608 15.110,28.957 15.484 C 26.906 16.660,26.931 16.425,26.628 37.601 C 26.472 48.491,26.358 64.240,26.375 72.600 C 26.554 163.255,26.474 287.679,26.210 330.116 C 25.854 387.262,25.746 383.879,27.997 385.900 C 28.941 386.746,29.347 386.799,34.900 386.800 C 38.468 386.800,40.800 386.954,40.800 387.190 C 40.800 387.442,62.935 387.586,103.265 387.595 C 152.304 387.606,165.861 387.716,166.342 388.105 C 166.836 388.505,166.892 388.498,166.634 388.070 C 166.308 387.527,167.123 387.558,171.355 388.247 C 172.457 388.427,172.828 388.369,172.631 388.050 C 172.427 387.720,175.330 387.608,183.476 387.628 C 189.812 387.644,194.256 387.800,193.800 387.990 C 193.360 388.173,208.974 388.344,228.498 388.371 C 248.911 388.398,264.406 388.574,264.961 388.785 C 266.236 389.270,299.600 389.253,299.600 388.768 C 299.600 388.565,299.895 388.400,300.256 388.400 C 300.948 388.400,352.400 337.029,352.400 336.338 C 352.400 336.118,353.075 335.275,353.900 334.466 C 354.725 333.657,356.253 331.980,357.295 330.740 C 358.337 329.500,361.082 326.572,363.395 324.233 C 365.708 321.895,367.600 319.898,367.600 319.796 C 367.600 319.564,368.708 318.202,369.900 316.968 C 370.395 316.456,370.800 315.758,370.800 315.418 C 370.800 315.078,370.994 314.800,371.231 314.800 C 371.663 314.800,371.504 225.524,371.017 194.600 C 370.788 180.028,370.401 123.019,370.143 65.800 C 370.056 46.440,369.832 29.340,369.645 27.800 C 369.458 26.260,369.272 22.933,369.230 20.408 L 369.155 15.816 367.720 14.501 L 366.285 13.187 348.243 13.261 C 338.319 13.302,326.870 13.476,322.800 13.647 M364.263 15.440 C 365.853 15.579,366.936 15.894,367.317 16.328 C 368.263 17.405,368.768 36.003,368.996 78.200 C 369.228 121.087,369.568 162.028,369.952 193.400 C 370.097 205.280,370.267 237.232,370.330 264.405 L 370.443 313.809 368.864 316.205 C 367.271 318.622,366.828 319.125,360.241 326.000 C 358.238 328.090,355.251 331.330,353.602 333.200 C 348.973 338.449,346.657 340.905,340.600 346.986 C 337.520 350.079,327.403 360.276,318.117 369.647 C 308.832 379.018,300.777 386.985,300.219 387.351 C 299.074 388.101,301.097 388.102,142.000 387.247 C 30.844 386.650,29.354 386.607,27.807 383.973 C 26.924 382.470,26.774 326.104,27.613 311.000 C 27.910 305.642,27.829 97.465,27.522 79.200 C 27.367 69.941,27.954 22.057,28.243 20.455 C 28.973 16.407,27.426 16.594,59.800 16.635 C 181.980 16.790,222.921 16.743,259.927 16.403 C 283.318 16.189,302.592 15.929,302.760 15.825 C 302.927 15.721,309.890 15.514,318.232 15.364 C 326.574 15.214,333.454 15.047,333.521 14.991 C 333.740 14.810,361.742 15.218,364.263 15.440 M269.400 70.453 C 262.360 70.592,217.820 70.723,170.423 70.744 C 96.427 70.777,84.166 70.863,83.677 71.352 C 82.405 72.623,81.658 112.552,82.842 115.949 C 83.662 118.301,81.229 118.181,130.800 118.328 C 155.990 118.402,176.734 118.592,176.897 118.749 C 177.061 118.906,177.301 147.557,177.433 182.417 C 177.564 217.278,177.790 264.131,177.935 286.535 L 178.200 327.270 179.322 328.235 L 180.445 329.200 198.022 329.200 C 218.440 329.200,216.899 329.537,217.390 324.957 C 217.552 323.446,217.575 293.948,217.441 259.405 C 217.308 224.862,217.154 179.050,217.099 157.600 L 217.000 118.600 258.400 118.357 C 281.170 118.224,302.469 118.089,305.731 118.057 L 311.662 118.000 312.877 116.784 L 314.093 115.569 313.799 94.284 C 313.486 71.551,313.439 71.070,311.493 70.592 C 310.127 70.256,283.767 70.169,269.400 70.453 M311.771 71.828 C 312.731 72.788,312.735 72.850,312.969 94.619 C 313.220 117.963,313.409 116.585,309.897 116.977 C 308.744 117.105,287.299 117.289,262.242 117.384 C 233.821 117.492,216.538 117.702,216.298 117.942 C 216.051 118.189,216.073 144.880,216.360 192.264 C 217.035 303.813,216.945 326.790,215.829 327.904 C 215.101 328.631,180.466 328.238,179.723 327.495 C 178.837 326.608,178.955 338.052,178.598 218.781 C 178.375 144.036,178.182 118.655,177.835 118.181 C 177.418 117.610,172.847 117.533,131.986 117.407 C 83.842 117.259,84.159 117.271,83.543 115.651 C 82.917 114.002,83.263 73.640,83.914 72.501 L 84.427 71.602 173.314 71.500 C 222.201 71.444,273.212 71.354,286.671 71.299 C 308.461 71.211,311.212 71.269,311.771 71.828 M97.467 130.800 C 82.082 131.027,83.052 130.783,82.599 134.545 C 82.463 135.675,82.407 179.170,82.476 231.200 C 82.607 331.325,82.522 326.995,84.387 327.993 C 85.291 328.477,118.416 328.764,120.060 328.302 C 122.012 327.754,122.000 328.017,122.000 286.984 L 122.000 248.488 123.300 248.344 C 124.015 248.265,134.320 248.292,146.200 248.406 C 168.775 248.620,170.150 248.546,170.672 247.088 C 171.027 246.095,170.935 161.150,170.560 144.000 C 170.295 131.883,170.195 131.397,167.903 131.028 C 166.054 130.730,113.653 130.561,97.467 130.800 M259.265 130.780 L 228.330 131.000 227.430 132.047 C 226.297 133.365,225.950 145.264,226.231 173.200 C 226.329 182.990,226.520 203.585,226.654 218.967 L 226.898 246.934 227.867 247.904 L 228.837 248.874 251.719 248.796 C 264.303 248.753,274.825 248.736,275.100 248.759 C 275.493 248.791,275.600 253.449,275.600 270.600 L 275.600 292.400 271.000 292.400 L 266.400 292.400 266.356 284.700 C 266.245 265.581,266.052 260.340,265.423 259.379 C 264.529 258.014,263.223 257.930,245.111 258.072 L 228.821 258.200 227.911 259.111 L 227.000 260.022 226.893 292.807 C 226.776 328.739,226.726 327.913,229.081 328.851 C 230.560 329.439,310.290 328.996,312.477 328.387 C 314.691 327.770,314.608 330.169,314.480 270.000 C 314.353 210.403,314.408 212.653,313.073 211.920 C 312.180 211.429,277.961 211.354,270.400 211.826 C 268.530 211.943,266.792 211.894,266.537 211.719 C 265.790 211.202,265.314 168.625,266.050 168.166 C 266.611 167.817,274.436 167.907,274.800 168.267 C 274.910 168.376,275.098 175.425,275.217 183.932 C 275.453 200.782,275.513 201.212,277.715 201.980 C 279.394 202.565,309.462 202.547,311.796 201.959 C 312.758 201.717,313.684 201.222,313.852 200.859 C 314.894 198.619,314.164 132.392,313.086 131.314 C 312.239 130.466,308.618 130.430,259.265 130.780 M311.181 131.456 C 313.140 131.848,313.106 131.335,313.420 165.249 C 313.764 202.369,313.876 200.589,311.160 201.171 C 308.924 201.651,281.622 201.735,279.002 201.271 C 276.243 200.781,276.234 200.725,276.069 183.200 C 275.977 173.466,275.773 167.616,275.513 167.300 C 274.686 166.294,265.719 166.629,265.153 167.687 C 264.310 169.264,265.036 211.647,265.918 212.323 C 266.447 212.730,268.254 212.799,274.000 212.634 C 291.557 212.129,312.406 212.234,312.992 212.830 C 313.791 213.643,314.083 325.932,313.289 326.892 C 312.458 327.894,309.769 327.967,269.000 328.086 C 228.525 328.205,228.587 328.207,228.101 326.473 C 227.364 323.844,227.756 260.473,228.514 259.714 C 229.449 258.779,263.552 258.594,264.480 259.519 C 264.876 259.914,265.095 263.955,265.400 276.519 L 265.800 293.000 270.767 293.113 C 273.499 293.175,275.892 293.068,276.085 292.875 C 276.465 292.495,276.582 248.618,276.205 248.008 C 276.066 247.783,266.811 247.727,252.688 247.864 C 232.156 248.064,229.305 248.018,228.600 247.478 C 227.301 246.483,226.545 133.913,227.829 132.629 C 228.174 132.283,228.489 131.967,228.529 131.926 C 228.568 131.886,243.180 131.744,261.000 131.612 C 278.820 131.480,297.113 131.333,301.650 131.286 C 306.188 131.239,310.477 131.315,311.181 131.456 M168.734 132.334 C 169.749 133.349,170.000 147.425,170.000 203.251 L 170.000 246.772 169.120 247.243 C 168.455 247.599,162.620 247.642,145.304 247.421 C 127.569 247.195,122.236 247.238,121.784 247.613 C 121.279 248.032,121.199 253.353,121.194 286.749 C 121.189 317.104,121.080 325.615,120.682 326.400 L 120.177 327.400 102.692 327.504 C 86.003 327.604,85.174 327.574,84.452 326.852 C 83.277 325.677,83.210 320.072,83.229 224.600 C 83.248 135.073,83.269 133.188,84.269 132.188 C 85.284 131.173,167.716 131.316,168.734 132.334 M121.529 166.928 C 120.940 167.516,121.111 211.245,121.704 211.837 C 122.328 212.461,130.548 212.510,131.363 211.895 C 132.480 211.052,132.444 167.724,131.326 166.900 C 130.361 166.189,122.245 166.213,121.529 166.928 M130.567 167.843 C 131.133 168.060,131.200 170.338,131.200 189.453 L 131.200 210.820 130.100 211.250 C 128.985 211.686,123.226 211.510,122.426 211.016 C 122.133 210.835,122.000 204.003,122.000 189.176 L 122.000 167.600 125.967 167.600 C 128.149 167.600,130.219 167.709,130.567 167.843 " stroke="none" fill="#f2ae89" fill-rule="evenodd"></path></g></svg>